<svg width="80" height="80" viewBox="0 0 80 80" fill="none" xmlns="http://www.w3.org/2000/svg">
<path fill-rule="evenodd" clip-rule="evenodd" d="M5.52933 30.6081C5.52933 30.6081 10.9929 33.7057 14.1315 35.4852C14.1315 39.852 14.1315 49.4929 14.1315 49.4929L16.1362 52.4999H76.3739L74.3693 49.4929C74.3693 49.4929 68.9061 46.3956 65.7666 44.6161C65.7666 40.249 65.7666 30.6081 65.7666 30.6081L63.7625 27.6012H61.7579H3.52494L5.52933 30.6081Z" fill="#1DC071"/>
<path fill-rule="evenodd" clip-rule="evenodd" d="M61.7579 27.6012H3.52494C3.52494 27.6012 12.8402 32.8825 14.1315 33.6149C14.1315 35.6017 14.1315 49.4929 14.1315 49.4929H74.3693C74.3693 49.4929 65.0541 44.2119 63.7625 43.4796C63.7625 41.4924 63.7625 27.6012 63.7625 27.6012H61.7579Z" fill="#4ACD8D"/>
<path fill-rule="evenodd" clip-rule="evenodd" d="M29.8962 31.9536H27.9076V29.6058H11.125L16.1362 32.4468V47.4885H23.5703V40.386H25.5588V47.4885H32.245V40.386H34.2337V47.4885H41.7053V29.6058H29.8962V31.9536ZM66.7693 47.4885L61.7579 44.6473V39.5194H58.0236V37.5304H61.7579V29.6058H53.8499V35.2609H51.8616V29.6058H43.6937V37.5304H47.4868V39.5194H43.6937V47.4885H51.8616V41.7889H53.8499V47.4885H66.7693Z" fill="white"/>
</svg>
